<svg viewBox="0 0 135.467 135.467" xmlns="http://www.w3.org/2000/svg">
  <g stroke="#404040" stroke-linecap="round" stroke-linejoin="round" stroke-width="4.252">
    <path fill="#fcf4b0" d="M-55.35 77.794H7.526v62.876H-55.35z" style="mix-blend-mode:multiply" transform="matrix(1.00445 -.75451 1.00445 .75451 -17.966 -16.31)"/>
    <path fill="#fae966" d="M-44.472 66.916h62.876v62.876h-62.876z" transform="matrix(1.00445 -.75451 1.00445 .75451 -17.966 -16.31)"/>
    <path fill="#f7df1c" d="M-33.595 56.039h62.876v62.875h-62.876z" transform="matrix(1.00445 -.75451 1.00445 .75451 -17.966 -16.31)"/>
  </g>
  <path d="M28.019 56.606V46h2.112l2.51 7.51q.348 1.049.507 1.57.181-.58.565-1.7L36.252 46h1.888v10.606h-1.353v-8.877l-3.082 8.877H32.44l-3.067-9.03v9.03zm11.749-3.842q0-2.134 1.187-3.161.99-.854 2.416-.854 1.585 0 2.59 1.042 1.006 1.034 1.006 2.865 0 1.483-.449 2.337-.441.846-1.295 1.316-.846.47-1.852.47-1.613 0-2.612-1.034-.99-1.035-.99-2.98zm1.339 0q0 1.476.643 2.214.644.73 1.621.73.97 0 1.613-.737.644-.738.644-2.25 0-1.425-.65-2.156-.645-.738-1.607-.738-.977 0-1.62.73-.644.731-.644 2.207zm12.407 1.028 1.28.166q-.209 1.324-1.077 2.076-.861.746-2.12.746-1.577 0-2.54-1.028-.954-1.034-.954-2.959 0-1.244.412-2.177.412-.934 1.252-1.397.846-.47 1.837-.47 1.252 0 2.048.637.796.629 1.02 1.794l-1.266.195q-.181-.774-.644-1.165-.456-.39-1.107-.39-.984 0-1.599.709-.615.701-.615 2.228 0 1.548.593 2.25.594.702 1.549.702.767 0 1.28-.47.514-.47.651-1.447zm2.402 2.814V46h1.303v6.048l3.082-3.125h1.685l-2.937 2.85 3.234 4.833h-1.606l-2.54-3.929-.918.883v3.046zm12.415-.948q-.723.615-1.396.868-.666.254-1.432.254-1.267 0-1.947-.615-.68-.623-.68-1.585 0-.564.253-1.027.26-.47.673-.753.42-.282.94-.426.384-.102 1.158-.196 1.578-.188 2.323-.448.007-.268.007-.34 0-.796-.369-1.122-.5-.441-1.483-.441-.919 0-1.36.326-.434.318-.644 1.135l-1.273-.173q.173-.818.571-1.317.398-.506 1.15-.774.753-.275 1.744-.275.984 0 1.599.231.615.232.904.586.29.348.405.883.066.333.066 1.201v1.736q0 1.816.08 2.301.086.478.332.919h-1.36q-.203-.405-.26-.948zm-.108-2.908q-.71.29-2.127.492-.803.116-1.136.26-.333.145-.514.427-.18.275-.18.615 0 .521.39.868.398.348 1.158.348.752 0 1.338-.326.586-.333.861-.904.21-.442.21-1.303zm3.327 3.856v-7.683h1.173v1.164q.448-.817.825-1.078.383-.26.839-.26.658 0 1.338.42l-.448 1.208q-.478-.282-.955-.282-.427 0-.767.26-.34.253-.485.71-.217.694-.217 1.518v4.023zm4.48-3.842q0-2.134 1.186-3.161.99-.854 2.416-.854 1.585 0 2.59 1.042 1.006 1.034 1.006 2.865 0 1.483-.449 2.337-.44.846-1.295 1.316-.846.47-1.852.47-1.613 0-2.612-1.034-.99-1.035-.99-2.98zm1.338 0q0 1.476.644 2.214.644.73 1.62.73.97 0 1.614-.737.643-.738.643-2.25 0-1.425-.65-2.156-.645-.738-1.607-.738-.976 0-1.62.73-.644.731-.644 2.207zm12.429 3.842v-1.129Q88.9 56.78 87.36 56.78q-.68 0-1.273-.26-.586-.261-.876-.652-.282-.398-.398-.97-.08-.383-.08-1.215v-4.76h1.303v4.26q0 1.021.08 1.376.123.513.52.81.398.29.985.29.586 0 1.1-.297.513-.304.723-.818.217-.52.217-1.505v-4.116h1.302v7.683zm3.213 0v-7.683h1.172v1.092q.846-1.266 2.445-1.266.694 0 1.273.253.586.246.876.651.29.405.405.963.072.361.072 1.266v4.724h-1.302v-4.674q0-.796-.152-1.186-.152-.398-.543-.63-.383-.238-.904-.238-.832 0-1.44.528-.6.528-.6 2.004v4.196zm13.232 0v-.97q-.73 1.144-2.149 1.144-.919 0-1.693-.507-.767-.506-1.193-1.41-.42-.912-.42-2.091 0-1.15.383-2.084.384-.94 1.15-1.44.768-.5 1.715-.5.695 0 1.238.298.542.289.882.76V46h1.295v10.606zm-4.117-3.834q0 1.475.623 2.206.622.73 1.468.73.854 0 1.447-.694.6-.701.6-2.134 0-1.577-.607-2.315-.608-.738-1.498-.738-.868 0-1.454.709-.579.709-.579 2.236z" aria-label="Mockaround" style="line-height:1.25;-inkscape-font-specification:'Arial, Normal';font-variant-ligatures:none" font-size="14.817" font-family="Arial" fill="#404040"/>
</svg>
